<svg id="icon" enable-background="new 0 0 64 64" height="512" viewBox="0 0 64 64" width="512" xmlns="http://www.w3.org/2000/svg"><path d="m59 8v18c0 2.76-2.24 5-5 5h-44c-2.76 0-5-2.24-5-5v-18c0-2.76 2.24-5 5-5h44c2.76 0 5 2.24 5 5z" fill="#2da779"/><g fill="#d9d6c7"><path d="m21.29 17c3.3208-2.5322 1.4193-8.0459-2.7901-8h-4.4999c-.55 0-1 .45-1 1v14c0 .55.45 1 1 1h4.5c4.2088.0437 6.1119-5.4656 2.79-8zm-2.79 6h-3.5v-5h3.5c3.2971.0842 3.2961 4.9162 0 5zm0-7h-3.5v-5h3.5c3.2971.0842 3.2961 4.9162 0 5z"/><path d="m36 9c-.5527 0-1 .4478-1 1v10c-.1027 3.9533-5.8965 3.9572-6-.0001v-9.9999c-.0049-1.3049-1.9946-1.3097-2 .0001 0-.0001 0 9.9999 0 9.9999.2092 6.6053 9.7901 6.6083 10-.0001v-9.9999c0-.5522-.4473-1-1-1z"/><path d="m50.5547 9.168c-.4619-.3076-1.0811-.1821-1.3867.2773l-3.168 4.752-3.168-4.752c-.7293-1.0852-2.3856.0179-1.664 1.1094 0 0 3.832 5.748 3.832 5.748v7.6973c0 .5522.4473 1 1 1s1-.4478 1-1v-7.6973l3.832-5.748c.3067-.4595.1826-1.0806-.2773-1.3867z"/></g><path d="m53.97 58.71-2.83 1.27c-4.8877 2.2205-10.8653.689-14.07-3.74 0 0-5.77-8.09-5.77-8.09-2.0306-2.8168-.4604-6.4526 2.73-7.46l-3.65-8.11c-.23-.5099-.35-1.05-.37-1.58-.2569-2.9224 3.0643-5.3862 5.8201-4.1899 1.8138.5407 2.5894 2.6065 3.2698 4.19.0001-.0001 2.8501 6.3399 2.8501 6.3399l6.99-1.51c3.51-.7599 7.04 1.47 7.87 4.96l1.95 8.15c.96 3.98-1.06 8.09-4.79 9.77z" fill="#fad582"/><path d="m37.93 49.02c-.27-.16-4.61-2.7599-5.69-7.3799.4719-.3891 1.2304-.6961 1.79-.95z" fill="#ecb760"/></svg>