<svg id="icon" enable-background="new 0 0 64 64" height="512" viewBox="0 0 64 64" width="512" xmlns="http://www.w3.org/2000/svg"><path d="m62 29v17c0 1.65-1.35 3-3 3h-19c-.55 0-1-.45-1-1v-25c0-.55.45-1 1-1h15c3.86 0 7 3.14 7 7z" fill="#f8bb49"/><path d="m62 29v7.01l-8.82-1.46c-2.42-.4-4.18-2.48-4.18-4.94v-7.61h6c3.86 0 7 3.14 7 7z" fill="#d9d6c7"/><path d="m38 10h-28c-1.65 0-3 1.35-3 3v33c0 1.65 1.35 3 3 3h30 1c-.0002-.4861.0002-1.4234 0-1.9041v-34.0959c0-1.65-1.35-3-3-3z" fill="#d95e5b"/><g fill="#a29f98"><path d="m56 48.5c-.2348 7.2678-10.7663 7.2661-11-.0001.2347-7.2677 10.7664-7.266 11 .0001z"/><path d="m26 48.5c-.2348 7.2678-10.7663 7.2661-11-.0001.2347-7.2677 10.7664-7.266 11 .0001z"/></g><g fill="#f8bb49"><path d="m18 19c0-.5522-.4473-1-1-1h-14c-.5527 0-1 .4478-1 1s.4473 1 1 1h14c.5527 0 1-.4478 1-1z"/><path d="m17 25h-12c-1.305.005-1.31 1.9945.0001 2-.0001 0 11.9999 0 11.9999 0 1.3041-.0049 1.3107-1.9945 0-2z"/></g></svg>