<svg id="icon" enable-background="new 0 0 64 64" height="512" viewBox="0 0 64 64" width="512" xmlns="http://www.w3.org/2000/svg"><path d="m62 16v32c0 2.76-2.24 5-5 5h-50c-2.76 0-5-2.24-5-5v-32c0-2.76 2.24-5 5-5h50c2.76 0 5 2.24 5 5z" fill="#d95e5b"/><path d="m62 37h-32.28c.77-.75 1.28-1.73 1.28-3 .0698-5.0231-6.4779-4.7772-9-2.13v-20.87h-2v20.87c-2.5242-2.6478-9.0693-2.8925-8.9999 2.1301-.0001 1.2699.5099 2.2499 1.2799 2.9999h-10.28v2h16.59l-4.3 4.29c-.39.39-.39 1.03 0 1.42.3963.3853 1.0237.3854 1.42 0 0 0 4.29-4.3 4.29-4.3v12.59h2v-12.59l4.29 4.3c.3963.3853 1.0237.3854 1.42 0 .39-.3899.39-1.03 0-1.42l-4.3-4.29h38.59zm-44 0c-1.63 0-5-.73-5-3 0-1.81 1.4-2 2-2 3.13 0 5 1.87 5 5zm6 0h-2c0-3.13 1.87-5 5-5 .6 0 2 .19 2 2 0 2.27-3.37 3-5 3z" fill="#ffbe43"/><g fill="#d9d6c7"><path d="m54 19c0-.5522-.4478-1-1-1h-15c-.5522 0-1 .4478-1 1s.4478 1 1 1h15c.5522 0 1-.4478 1-1z"/><path d="m53 25h-12c-1.304.0051-1.3106 1.9943.0001 2-.0001 0 11.9999 0 11.9999 0 1.304-.0051 1.3106-1.9943 0-2z"/></g></svg>