<svg id="Capa_1" enable-background="new 0 0 504.498 504.498" height="512" viewBox="0 0 504.498 504.498" width="512" xmlns="http://www.w3.org/2000/svg"><g><path d="m69 3.749v29c0 .27 0 .53-.02.79-.41 11.79-10.1 21.21-21.98 21.21h-22c-13.81 0-25-11.19-25-25 0-7.18 2.91-13.68 7.62-18.38 4.7-4.71 11.2-7.62 18.38-7.62h43z" fill="#50758d"/><circle cx="227" cy="450.749" fill="#50758d" r="50"/><circle cx="226.75" cy="450.499" fill="#2b597f" r="22.111"/><circle cx="389" cy="450.749" fill="#50758d" r="50"/><circle cx="388.75" cy="450.499" fill="#2b597f" r="22.111"/><path d="m502.77 55.949c-1.43-1.71-3.54-2.7-5.77-2.7h-364c-4.14 0-7.5 3.36-7.5 7.5s3.36 7.5 7.5 7.5h99.01l4.97 71h-95.52c-4.15 0-7.5 3.36-7.5 7.5s3.35 7.5 7.5 7.5h96.57l5.04 72h-92.78c-4.14 0-7.5 3.36-7.5 7.5s3.36 7.5 7.5 7.5h93.83l4.98 71h-89.1c-4.14 0-7.5 3.36-7.5 7.5s3.36 7.5 7.5 7.5h289c3.62 0 6.72-2.58 7.37-6.13l48-259c.41-2.19-.18-4.45-1.6-6.17zm-135.81 256.3h-102.83l-4.97-71h113.03zm6.33-86h-115.18l-5.04-72h125.52zm-121.27-87-4.98-71h137.89l-5.23 71zm190.74 173h-60.76l5.23-71h68.69zm15.94-86h-70.37l5.3-72h78.41zm16.12-87h-80.08l5.23-71h88.01z" fill="#50758d"/><path d="m502.77 55.949c-1.43-1.71-3.54-2.7-5.77-2.7h-364c-4.14 0-7.5 3.36-7.5 7.5s3.36 7.5 7.5 7.5h99.01l1.05 15 2.87 41 1.05 15h-95.52c-4.15 0-7.5 3.36-7.5 7.5s3.35 7.5 7.5 7.5h96.57l1.05 15 2.94 42 1.05 15h-92.78c-4.14 0-7.5 3.36-7.5 7.5s3.36 7.5 7.5 7.5h93.83l1.05 15 2.88 41 1.05 15h-89.1c-4.14 0-7.5 3.36-7.5 7.5s3.36 7.5 7.5 7.5h289c3.62 0 6.72-2.58 7.37-6.13l48-259c.41-2.19-.18-4.45-1.6-6.17zm-254.68 27.3-1.05-15h137.89l-1.1 15-3.03 41-1.1 15h-127.68l-1.05-15zm6.03 86-1.05-15h125.52l-1.1 15-3.1 42-1.1 15h-115.18l-1.05-15zm112.84 143h-102.83l-1.05-15-2.87-41-1.05-15h113.03l-1.1 15-3.03 41zm75.8 0h-60.76l1.1-15 3.03-41 1.1-15h68.69zm15.94-86h-70.37l1.1-15 3.1-42 1.1-15h78.41zm16.12-87h-80.08l1.1-15 3.03-41 1.1-15h88.01z" fill="#50758d"/><path d="m467 385.749c0 8.01-6.99 15-15 15h-254c-.45 0-.9-.01-1.34-.02-.38-.01-.75-.02-1.13-.03-4.96-.22-9.76-1.1-14.31-2.55-.76-.25-1.51-.51-2.26-.78-.52-.19-1.05-.4-1.57-.61-.31-.12-.61-.25-.92-.38-.78-.33-1.55-.68-2.31-1.05-.96-.45-1.9-.94-2.82-1.45-.29-.16-.58-.32-.86-.48-.63-.36-1.24-.74-1.85-1.12-.59-.37-1.16-.75-1.73-1.13-.82-.56-1.62-1.14-2.41-1.75-.17-.12-.34-.25-.5-.38-.34-.26-.68-.53-1.01-.81-1.51-1.23-2.96-2.54-4.33-3.93-.25-.25-.49-.5-.73-.75-1.75-1.82-3.38-3.76-4.87-5.82-.18-.24-.35-.48-.53-.73-.25-.35-.5-.71-.74-1.08-.11-.16-.23-.33-.33-.5-.31-.46-.61-.93-.89-1.4-.46-.73-.9-1.48-1.31-2.23-.25-.43-.48-.86-.7-1.3-.32-.59-.62-1.18-.9-1.79-.12-.24-.23-.49-.35-.73-.2-.43-.4-.87-.58-1.31-.15-.34-.3-.69-.43-1.03-.18-.42-.35-.84-.51-1.26 0-.01-.01-.01-.01-.02-1.7-4.47-2.88-9.21-3.44-14.15l-15.19-130.2-4.14-34.23-15-138c-1-8-7.67-13.95-16-14l-23.02-.21v-.01c.02-.26.02-.51.02-.78v-29h24c23.04.15 41.92 18.13 44.53 40.97l.97 8.53 1.72 15 8.1 71 1.71 15 8.22 72 1.71 15 8.1 71 1.71 15 2.23 19.5c1.59 13.89 12.02 24 26 24h254c7.68 0 14.41 6.42 14.96 14 .03.33.04.67.04 1z" fill="#fad207"/><path d="m68.98 33.529v.01c-.41 11.79-10.1 21.21-21.98 21.21h-22c-13.81 0-25-11.19-25-25 0-4.05.92-7.88 2.57-11.29 3.84 8.87 12.67 15.07 22.95 15.07z" fill="#2b597f"/><path d="m467 385.749c0 8.01-6.99 15-15 15h-254c-.45 0-.9-.01-1.34-.02-.38-.01-.75-.02-1.13-.03-4.96-.22-9.76-1.1-14.31-2.55-.76-.25-1.51-.51-2.26-.78-.52-.19-1.05-.4-1.57-.61-.31-.12-.61-.25-.92-.38-.78-.33-1.55-.68-2.31-1.05-.96-.45-1.9-.94-2.82-1.45-.29-.16-.58-.32-.86-.48-.63-.36-1.24-.74-1.85-1.12-.59-.37-1.16-.74-1.73-1.13-.82-.56-1.62-1.14-2.41-1.75-.17-.12-.34-.25-.5-.38-.34-.26-.68-.53-1.01-.81-1.51-1.23-2.96-2.54-4.33-3.93-.25-.25-.49-.5-.73-.75-1.75-1.82-3.38-3.76-4.87-5.82-.18-.24-.35-.48-.53-.73-.25-.35-.5-.71-.74-1.08-.11-.16-.23-.33-.33-.5-.31-.46-.61-.93-.89-1.4-.46-.73-.9-1.48-1.31-2.23-.25-.43-.48-.86-.7-1.3-.32-.59-.62-1.18-.9-1.79-.12-.24-.23-.49-.35-.73-.2-.43-.4-.87-.58-1.31-.15-.34-.3-.69-.43-1.03-.18-.42-.35-.84-.51-1.26 10.21 14.21 26.66 20.4 45.22 20.4h275.96c.03.33.04.67.04 1z" fill="#faa515"/><g fill="#2b597f"><path d="m252.02 139.249h-15.04l-1.05-15h15.04z"/><path d="m253.07 154.249 1.05 15h-15.04l-1.05-15z"/><path d="m378.59 154.249h15.04l-1.1 15h-15.04z"/><path d="m395.84 124.249-1.1 15h-15.04l1.1-15z"/><path d="m247.04 68.249 1.05 15h-15.03l-1.05-15z"/><path d="m399.97 68.249-1.1 15h-15.04l1.1-15z"/><path d="m263.08 297.249 1.05 15h-15.03l-1.05-15z"/><path d="m383.1 297.249-1.1 15h-15.04l1.1-15z"/><path d="m258.11 226.249h-15.04l-1.05-15h15.04z"/><path d="m259.16 241.249 1.05 15h-15.04l-1.05-15z"/><path d="m372.19 241.249h15.04l-1.1 15h-15.04z"/><path d="m389.43 211.249-1.1 15h-15.04l1.1-15z"/></g></g></svg>