<svg id="icon" enable-background="new 0 0 64 64" height="512" viewBox="0 0 64 64" width="512" xmlns="http://www.w3.org/2000/svg"><path d="m51.99 24.11-3.42 31.64c-.38 3.56-3.37 6.25-6.96 6.25h-19.22c-3.59 0-6.58-2.69-6.96-6.25l-3.42-31.64c-.074-.5698.4119-1.1249.99-1.11h38c.5745-.0122 1.0676.5376.99 1.11z" fill="#35c172"/><path d="m51.82 17.58c-.19.26-.49.42-.82.42h-38c-.6785.0164-1.182-.7088-.94-1.34 0 0 4.05-11.34 4.05-11.34.71-1.99 2.6-3.32 4.71-3.32h22.36c2.11 0 4 1.33 4.71 3.32l4.05 11.34c.11.31.06.65-.12.92z" fill="#35c172"/><path d="m55 19v3c0 1.65-1.35 3-3 3h-40c-1.65 0-3-1.35-3-3v-3c0-1.65 1.35-3 3-3h40c1.65 0 3 1.35 3 3z" fill="#2da779"/><g fill="#d9d6c7"><g><path d="m24 31c-.5522 0-1 .4473-1 1v21c0 .5527.4478 1 1 1s1-.4473 1-1v-21c0-.5527-.4478-1-1-1z"/><path d="m32 31c-.5522 0-1 .4473-1 1v21c0 .5527.4478 1 1 1s1-.4473 1-1v-21c0-.5527-.4478-1-1-1z"/><path d="m40 31c-.5522 0-1 .4473-1 1v21c0 .5527.4478 1 1 1s1-.4473 1-1v-21c0-.5527-.4478-1-1-1z"/></g><path d="m41.32 2c-.2235.7663-1.6804 5.9272-1.94 6.82-.37 1.29-1.56 2.18-2.89 2.18h-8.98c-1.3297-.0001-2.5325-.8946-2.89-2.18-.2624-.919-1.7129-6.0164-1.94-6.82z"/></g></svg>